
<svg preserveAspectRatio="none" xmlns="http://www.w3.org/2000/svg"
   
  
   viewBox="0 0 115.18876 107.85521"
   version="1.1"
   id="lmhemklodt"
  >
  <defs
     id="wqaxetiwix">
    <clipPath
       id="nvpqgirmjp"
       clipPathUnits="userSpaceOnUse">
      <path
         
         id="zdneekocsl"
         d="M 0,500 H 500 V 0 H 0 Z" />
    </clipPath>
    <clipPath
       id="pxpcttqnzo"
       clipPathUnits="userSpaceOnUse">
      <path
         
         id="bmagrjrzmi"
         d="M 59.5653,427.154 H 223.691 V 299.215 H 59.5653 Z" />
    </clipPath>
    <clipPath
       id="xtreegkbsf"
       clipPathUnits="userSpaceOnUse">
      <path
         
         id="rxgyetfhgm"
         d="m 167.354,425.309 c -1.918,-0.58 -3.763,-1.277 -5.531,-2.08 -9.649,-4.382 -20.359,-5.772 -30.782,-3.851 -11.979,2.21 -24.786,0.837 -36.811,-4.828 -27.094,-12.763 -40.86,-43.976 -31.977,-72.578 10.578,-34.06 47.584,-51.362 80.137,-38.509 10.976,4.334 19.974,11.521 26.486,20.372 6.212,8.442 14.88,14.747 24.826,18.051 0.769,0.256 1.536,0.534 2.298,0.835 23.398,9.238 34.385,36.405 23.423,59.516 -9.188,19.372 -31.548,29.283 -52.069,23.072" />
    </clipPath>
    <mask
       id="kacstffdau"
       height="1"
       width="1"
       y="0"
       x="0"
       maskUnits="userSpaceOnUse">
      <g
         id="niqyhwrrxf">
        <g
           id="mpkhpsrjho">
          <g
             id="tapktupxgs">
            <g
               id="yghslkqbvq">
              <path
                 
                 id="xrmzhmsgqc"
                 style="fill:url(#zapnmwuocr);stroke:none"
                 d="M -32768,32767 H 32767 V -32768 H -32768 Z" />
            </g>
          </g>
        </g>
      </g>
    </mask>
    <linearGradient
       id="zapnmwuocr"
       
       gradientTransform="matrix(156.81203,61.925663,61.925663,-156.81203,63.808769,337.55322)"
       gradientUnits="userSpaceOnUse"
       y2="0"
       x2="1"
       y1="0"
       x1="0">
      <stop
         id="orgtiqqpnh"
         offset="0"
         style="stop-opacity:1;stop-color:#ffffff" />
      <stop
         id="sqndnzkxvi"
         offset="0.23845235"
         style="stop-opacity:0;stop-color:#ffffff" />
      <stop
         id="yvgwcgquil"
         offset="1"
         style="stop-opacity:0;stop-color:#ffffff" />
    </linearGradient>
    <linearGradient
       id="lmqtqonmcd"
       
       gradientTransform="matrix(156.81203,61.925663,61.925663,-156.81203,63.808769,337.55322)"
       gradientUnits="userSpaceOnUse"
       y2="0"
       x2="1"
       y1="0"
       x1="0">
      <stop
         id="uyowbftspe"
         offset="0"
         style="stop-opacity:1;stop-color:#ffffff" />
      <stop
         id="amsnplcycb"
         offset="0.23845235"
         style="stop-opacity:1;stop-color:#ffffff" />
      <stop
         id="gxyohcghxp"
         offset="1"
         style="stop-opacity:1;stop-color:#ffffff" />
    </linearGradient>
    <linearGradient
       id="chiorvhcve"
       
       gradientTransform="matrix(172.74785,68.218773,68.218773,-172.74785,55.840866,336.51968)"
       gradientUnits="userSpaceOnUse"
       y2="0"
       x2="1"
       y1="0"
       x1="0">
      <stop
         id="yxvbiqnqdc"
         offset="0"
         style="stop-opacity:1;stop-color:#ed37f7" />
      <stop
         id="awualgtgmj"
         offset="1"
         style="stop-opacity:1;stop-color:#ff2c82" />
    </linearGradient>
    <linearGradient
       id="cdtzfdoqzd"
       
       gradientTransform="matrix(147.88286,-109.90795,-109.90795,-147.88286,65.386467,425.61514)"
       gradientUnits="userSpaceOnUse"
       y2="0"
       x2="1"
       y1="0"
       x1="0">
      <stop
         id="ywrigqbaah"
         offset="0"
         style="stop-opacity:1;stop-color:#ca25d8" />
      <stop
         id="htzzbckori"
         offset="1"
         style="stop-opacity:1;stop-color:#e21472" />
    </linearGradient>
    <linearGradient
       id="rhdskyvekm"
       
       gradientTransform="matrix(165.7075,0,0,-165.7075,59.361401,373.70154)"
       gradientUnits="userSpaceOnUse"
       y2="0"
       x2="1"
       y1="0"
       x1="0">
      <stop
         id="hhaudjvgji"
         offset="0"
         style="stop-opacity:1;stop-color:#f688ff" />
      <stop
         id="vhkymolxrz"
         offset="1"
         style="stop-opacity:1;stop-color:#ff92c4" />
    </linearGradient>
  </defs>
 
  <g
     
     id="bawoyrjwmm"
     transform="translate(-43.703239,-63.911676)">
    <g
       id="qgqgwjmhrf"
       transform="matrix(0.56182956,0,0,-0.56182956,21.760114,327.79611)">
      <g
         id="hvmljwlhha">
        <g
           id="ptepgybntd">
          <g
             id="xwmqqywvrt">
            <path
               d="m 138.743,458.26 c -19.87,-1.3 -35.988,-17.317 -37.402,-37.179 v 0 c -0.267,-3.765 -0.012,-7.428 0.695,-10.929 v 0 C 77.256,401.993 59.361,378.675 59.361,351.163 v 0 c 0,-34.301 27.808,-62.108 62.109,-62.108 v 0 c 33.348,0 60.55,26.285 62.036,59.267 v 0 c 0.449,-0.016 0.9,-0.029 1.352,-0.029 v 0 c 22.208,0 40.21,18.003 40.21,40.21 v 0 c 0,11.648 -9.155,27.458 -23.432,29.407 v 0 c -13.193,1.8 -20.995,16.291 -29.664,26.397 v 0 c -7.373,8.596 -18.314,14.041 -30.528,14.042 v 0 c -0.894,0 -1.794,-0.03 -2.701,-0.089"
               style="fill:url(#rhdskyvekm);stroke:none"
               id="sksqrvspuj"
                />
          </g>
        </g>
      </g>
    </g>
    <g
       id="ypfuffdylu"
       transform="matrix(0.56182956,0,0,-0.56182956,21.760114,327.79611)">
      <g
         id="ojaqiihiet">
        <g
           id="luhorxsnvj">
          <g
             id="qaexsatnzk">
            <path
               d="M 67.667,428.472 C 48.064,405.575 52.214,371.296 75.992,353.623 v 0 c 4.956,-3.684 10.357,-6.342 15.948,-8.011 v 0 c 15.163,-4.527 28.356,-14.334 37.062,-27.548 v 0 c 3.211,-4.873 7.312,-9.279 12.268,-12.962 v 0 c 23.778,-17.674 57.797,-11.765 74.072,13.604 v 0 c 14.091,21.969 9.192,51.536 -11.187,67.844 v 0 c -5.393,4.316 -11.363,7.365 -17.569,9.199 v 0 c -15.086,4.461 -28.238,14.237 -36.858,27.397 v 0 c -3.546,5.411 -8.187,10.251 -13.873,14.171 v 0 c -8.792,6.06 -18.964,8.999 -29.075,8.999 v 0 c -14.605,0.001 -29.084,-6.129 -39.113,-17.844"
               style="fill:url(#cdtzfdoqzd);stroke:none"
               id="yvkqdblkzb"
                />
          </g>
        </g>
      </g>
    </g>
    <g
       id="dwvcdfyxlg"
       transform="matrix(0.56182956,0,0,-0.56182956,21.760114,327.79611)">
      <g
         id="uhxpnihvna">
        <g
           id="enhncggsin">
          <g
             id="jcpvvdbvbz">
            <path
               d="m 169.908,433.193 c -2.113,-0.639 -4.145,-1.406 -6.092,-2.29 v 0 c -10.629,-4.828 -22.429,-6.36 -33.911,-4.243 v 0 c -13.197,2.434 -27.304,0.922 -40.552,-5.319 v 0 C 59.506,407.281 44.342,372.896 54.127,341.388 v 0 c 11.652,-37.522 52.42,-56.582 88.281,-42.422 v 0 c 12.091,4.774 22.003,12.69 29.177,22.441 v 0 c 6.843,9.301 16.393,16.246 27.35,19.886 v 0 c 0.846,0.281 1.691,0.588 2.531,0.92 v 0 c 25.775,10.178 37.879,40.104 25.804,65.564 v 0 c -8.088,17.051 -25.441,27.448 -43.621,27.449 v 0 c -4.573,0 -9.197,-0.657 -13.741,-2.033"
               style="fill:url(#chiorvhcve);stroke:none"
               id="nhgldlwkgx"
                />
          </g>
        </g>
      </g>
    </g>
    <g
       id="hencannovd"
       transform="matrix(0.56182956,0,0,-0.56182956,21.760114,327.79611)">
      <g
         id="efqszyhvra"
         clip-path="url(#nvpqgirmjp)">
        <g
           id="jpyvdnadcw">
          <g
             id="wsmikbejdj" />
          <g
             id="fetwycvmqs">
            <g
               clip-path="url(#pxpcttqnzo)"
               id="pchssmjopu"
               style="opacity:0.39999402">
              <g
                 id="laqbolqjvp">
                <g
                   clip-path="url(#xtreegkbsf)"
                   id="kauqykngcv">
                  <g
                     id="daarpmwnrg">
                    <g
                       id="edixuuabgb" />
                    <g
                       mask="url(#kacstffdau)"
                       id="llajrrsuay">
                      <g
                         id="uibzkywwmd">
                        <path
                           d="m 167.354,425.309 c -1.918,-0.58 -3.763,-1.277 -5.531,-2.08 -9.649,-4.382 -20.359,-5.772 -30.782,-3.851 -11.979,2.21 -24.786,0.837 -36.811,-4.828 -27.094,-12.763 -40.86,-43.976 -31.977,-72.578 10.578,-34.06 47.584,-51.362 80.137,-38.509 10.976,4.334 19.974,11.521 26.486,20.372 6.212,8.442 14.88,14.747 24.826,18.051 0.769,0.256 1.536,0.534 2.298,0.835 23.398,9.238 34.385,36.405 23.423,59.516 -9.188,19.372 -31.548,29.283 -52.069,23.072"
                           style="fill:url(#lmqtqonmcd);stroke:none"
                           id="hncnllpmen"
                            />
                      </g>
                    </g>
                  </g>
                </g>
              </g>
            </g>
          </g>
        </g>
      </g>
    </g>
  </g>
</svg>
